<?xml version="1.0" encoding="UTF-8"?>
<!DOCTYPE svg PUBLIC "-//W3C//DTD SVG 1.1//EN" "http://www.w3.org/Graphics/SVG/1.1/DTD/svg11.dtd">
<!-- Creator: CorelDRAW -->
<svg xmlns="http://www.w3.org/2000/svg" xml:space="preserve" width="58.3847mm" height="60.1559mm" version="1.1" style="shape-rendering:geometricPrecision; text-rendering:geometricPrecision; image-rendering:optimizeQuality; fill-rule:evenodd; clip-rule:evenodd"
viewBox="0 0 537.51 553.81"
 xmlns:xlink="http://www.w3.org/1999/xlink"
 xmlns:xodm="http://www.corel.com/coreldraw/odm/2003">
 <defs>
  <style type="text/css">
   <![CDATA[
    .fil1 {fill:#0068FF}
    .fil0 {fill:white}
   ]]>
  </style>
 </defs>
 <g id="Layer_x0020_1">
  <metadata id="CorelCorpID_0Corel-Layer"/>
  <g id="_2373219156768">
   <path class="fil0" d="M1.82 63.17c0.75,3.08 2.74,7.65 3.93,10.85 1.35,3.64 2.75,7.33 4.01,10.95 2.52,7.26 5.32,14.46 7.95,21.71l31.95 87.24c2.66,7.25 5.17,14.58 7.88,21.78 0.95,2.53 7.62,21.16 8.15,21.8 0.72,-0.28 0.6,-0.27 1.07,-1.05 0.31,-0.51 0.43,-0.79 0.81,-1.29l5.82 -7.04c16.93,-21.5 45.55,-40.81 70.11,-50.92 16.97,-6.98 33.51,-12.34 53.05,-16.01 18.97,-3.57 44.79,-5.45 64.58,-3.39 19.93,2.08 38.9,6.39 54.98,14.08 12.85,6.15 20.95,12.17 31.24,20.48 3.14,2.53 7.6,7.9 10.66,10.86 2.43,2.35 10.83,14.98 12.44,17.76 14.73,25.41 20.4,53.86 19.42,84.47 -1.17,-0.72 -1.77,-1.42 -2.86,-2.33 -0.99,-0.83 -2.09,-1.69 -3.02,-2.51 -1.9,-1.67 -3.58,-3.6 -5.57,-5.19 -4.02,-3.23 -7.86,-6.75 -11.96,-9.83 -8,-5.99 -16.75,-12.17 -26.14,-17.44 -20.34,-11.4 -38.28,-19.64 -61.81,-25.08 -24.69,-5.7 -52.64,-8.47 -79.15,-6.55 -6.59,0.48 -13.3,0.76 -19.83,1.65 -12.34,1.68 -24.44,4.05 -36.36,7.2 -5.68,1.5 -11.13,3.39 -16.57,5.21 -20.35,6.82 -40.98,16.63 -57.43,29.46 -4.59,3.58 -9.28,6.85 -13.46,10.7 -1.44,1.33 -2.93,2.42 -4.2,3.94l-5.4 5.63c-7.21,7.71 -13.31,15.6 -18.85,24.72 -12.28,20.21 -20.21,37.97 -24.86,62.01 -7.67,39.65 3.51,79.18 28.1,108.48 1.76,2.1 3.43,3.82 5.14,5.89 1.6,1.94 3.71,3.47 5.38,5.38 0.92,1.05 1.75,1.61 2.91,2.6 1.02,0.87 1.86,1.78 2.87,2.64 3.9,3.31 7.6,6.15 12.21,9.33 4.12,2.85 8.92,5.67 13.55,8.24 32.2,17.92 68.14,25.03 106.55,24 14.1,-0.38 25.23,-1.29 38.94,-4.45 11.2,-2.58 23.14,-6.29 32.58,-11 2.41,-1.21 4.78,-2.26 7.27,-3.49 7,-3.47 14.13,-7.83 20.34,-12.22 6.54,-4.63 12.2,-9.31 18.28,-14.27l13.81 -13.23c0.96,-0.99 1.84,-1.73 2.76,-2.75 18.7,-20.63 31.3,-39.04 45.38,-63.31 5.42,-9.34 9.74,-18.83 14.76,-28.82 8.57,-17.06 15.82,-35.61 22.37,-53.76 1.01,-2.78 2.12,-5.26 2.86,-8.14 0.8,0.6 1.5,1.94 2.05,2.85 9.03,14.88 13.81,42.88 13.23,59.97 -0.44,12.87 -1.2,23.25 -3.59,35.52 -2.18,11.2 -4.66,20.56 -8.76,30.32 -8.8,20.96 -19.8,37.59 -32.9,52.17 -0.53,0.59 -0.78,0.78 -1.24,1.38l-14.61 14.79c-3.19,3.16 -6.33,6.61 -9.96,9.46 -1.91,1.5 -3.32,2.87 -5.3,4.41 -1.59,1.24 -4.51,3.03 -5.23,4.7l205.36 0.02c-0.04,-5.1 -2.23,-14.21 -3.24,-19.38 -3.89,-19.95 -13.86,-50.64 -22.35,-68.76 -2.41,-5.16 -4.77,-10.58 -7.36,-15.48 -6.1,-11.51 -11.69,-22.25 -18.23,-32.96 -1.74,-2.85 -2.2,-3.13 -4.36,-6.93 -0.74,-1.31 -1.44,-2.25 -2.26,-3.51 -10.38,-15.95 -21.63,-31.41 -34.16,-45.65 -0.66,-0.74 -0.8,-0.95 -1.32,-1.57l-4.15 -4.51c-3.44,-4.24 -7.41,-7.73 -11.05,-11.79 -3.47,-3.88 -7.58,-7.85 -11.34,-11.51 -2.57,-2.5 -9.05,-9.72 -11.58,-11.26 0.05,-1.53 3.52,-17.58 4.15,-21.21 3.9,-22.67 5.35,-45.87 7.12,-68.89 2.39,-31.07 -1.84,-62.73 -10.52,-89.95 -8.31,-26.09 -21.32,-48.05 -35.04,-66.3 -5.89,-7.83 -8.62,-10.11 -14.73,-16.77 -3.56,-3.88 -7.48,-7.43 -11.29,-11.02 -4.71,-4.43 -11.06,-8.45 -16.33,-12.29 -3.77,-2.75 -7.69,-4.95 -11.83,-7.33 -61.47,-35.4 -139.96,-31.89 -211.15,-11.22 -21.81,6.33 -51.84,18.28 -72.28,29.06 -8.11,4.28 -16.59,8.8 -24.32,13.75 -1.38,0.89 -2.49,1.54 -3.9,2.4l-3 1.71c-0.14,0.07 -0.41,0.21 -0.52,0.28 -0.43,0.26 -0.33,0.18 -0.65,0.47z"/>
   <path class="fil1" d="M384.84 320.23c-1.01,-0.58 -2.48,-1.87 -3.22,-2.54 -1.1,-1 -1.94,-1.65 -3.25,-2.52 -7.21,-4.83 -13.88,-9.07 -22.57,-12.08 -12.24,-4.24 -23.22,-7.66 -37.06,-9.42 -30.18,-3.84 -54.21,0.48 -80.91,8.59 -24.42,7.42 -44.91,21.32 -56.8,35.88 -4.6,5.64 -5.37,6.14 -9.57,13.53 -2.65,4.68 -5.13,10.59 -6.71,16.4 -4.09,14.98 -3.14,25.73 2.1,39.42 4.06,10.62 12.25,18.35 22.42,23.78 11.18,5.98 22.85,8.72 37.59,8.97 19.09,0.31 41.5,-3.45 58.58,-10.83 14.22,-6.14 17.34,-8.55 30.12,-16.34 5.84,-3.56 8.24,-5.4 13.57,-9.52 3.89,-3.01 7.42,-5.95 10.87,-9.34 0.6,-0.59 0.94,-0.71 1.57,-1.33l12.88 -13.36c0.52,-0.59 0.76,-1 1.3,-1.6 4.91,-5.39 13.14,-17.5 16.61,-23.82 5.5,-10 11.04,-22.04 12.47,-33.88z"/>
  </g>
 </g>
</svg>
