<?xml version="1.0" encoding="UTF-8"?>
<!DOCTYPE svg PUBLIC "-//W3C//DTD SVG 1.1//EN" "http://www.w3.org/Graphics/SVG/1.1/DTD/svg11.dtd">
<!-- Creator: CorelDRAW -->
<svg xmlns="http://www.w3.org/2000/svg" xml:space="preserve" width="58.3847mm" height="60.1559mm" version="1.1" style="shape-rendering:geometricPrecision; text-rendering:geometricPrecision; image-rendering:optimizeQuality; fill-rule:evenodd; clip-rule:evenodd"
viewBox="0 0 743.7 766.26"
 xmlns:xlink="http://www.w3.org/1999/xlink"
 xmlns:xodm="http://www.corel.com/coreldraw/odm/2003">
 <defs>
  <style type="text/css">
   <![CDATA[
    .fil0 {fill:white}
   ]]>
  </style>
 </defs>
 <g id="Layer_x0020_1">
  <metadata id="CorelCorpID_0Corel-Layer"/>
  <path class="fil0" d="M2.51 87.41c1.03,4.26 3.8,10.59 5.44,15.01 1.87,5.04 3.8,10.14 5.54,15.16 3.49,10.05 7.36,20.01 11,30.04l44.21 120.7c3.68,10.04 7.15,20.17 10.9,30.14 1.32,3.51 10.54,29.27 11.27,30.16 1,-0.39 0.83,-0.38 1.48,-1.45 0.42,-0.7 0.59,-1.09 1.12,-1.79l8.05 -9.74c23.42,-29.75 63.03,-56.46 97.01,-70.45 23.47,-9.66 46.37,-17.07 73.4,-22.15 26.25,-4.93 61.98,-7.55 89.35,-4.69 27.58,2.88 53.82,8.84 76.07,19.49 17.78,8.51 28.98,16.83 43.22,28.34 4.34,3.51 10.52,10.93 14.75,15.03 3.36,3.25 14.98,20.73 17.21,24.57 20.37,35.16 28.22,74.53 26.87,116.88 -1.62,-1 -2.45,-1.97 -3.95,-3.22 -1.36,-1.14 -2.89,-2.34 -4.17,-3.47 -2.63,-2.31 -4.96,-4.98 -7.7,-7.19 -5.57,-4.47 -10.87,-9.35 -16.55,-13.6 -11.07,-8.29 -23.18,-16.84 -36.17,-24.13 -28.14,-15.77 -52.96,-27.18 -85.52,-34.69 -34.17,-7.89 -72.83,-11.72 -109.51,-9.06 -9.11,0.66 -18.4,1.05 -27.44,2.29 -17.07,2.33 -33.82,5.6 -50.31,9.96 -7.87,2.08 -15.41,4.69 -22.93,7.21 -28.16,9.44 -56.7,23.01 -79.47,40.77 -6.35,4.95 -12.84,9.48 -18.62,14.8 -1.99,1.84 -4.06,3.34 -5.8,5.45l-7.47 7.79c-9.97,10.67 -18.42,21.59 -26.08,34.21 -16.99,27.97 -27.96,52.54 -34.39,85.8 -10.61,54.86 4.86,109.56 38.88,150.1 2.44,2.91 4.75,5.29 7.11,8.15 2.22,2.69 5.14,4.8 7.44,7.44 1.27,1.46 2.42,2.23 4.02,3.6 1.41,1.2 2.57,2.46 3.98,3.65 5.4,4.57 10.52,8.5 16.89,12.9 5.7,3.94 12.35,7.84 18.75,11.4 44.56,24.8 94.28,34.63 147.42,33.21 19.5,-0.52 34.91,-1.78 53.88,-6.15 15.49,-3.57 32.02,-8.7 45.08,-15.22 3.34,-1.67 6.62,-3.12 10.06,-4.83 9.68,-4.8 19.56,-10.83 28.14,-16.9 9.05,-6.4 16.88,-12.88 25.29,-19.74l19.11 -18.3c1.33,-1.37 2.55,-2.39 3.82,-3.8 25.87,-28.55 43.31,-54.01 62.79,-87.59 7.49,-12.92 13.48,-26.06 20.42,-39.87 11.86,-23.6 21.88,-49.28 30.96,-74.39 1.39,-3.85 2.93,-7.28 3.96,-11.26 1.1,0.83 2.07,2.69 2.84,3.94 12.5,20.59 19.11,59.32 18.31,82.98 -0.6,17.8 -1.66,32.17 -4.97,49.14 -3.02,15.5 -6.45,28.44 -12.12,41.95 -12.17,29 -27.39,52.01 -45.52,72.19 -0.73,0.81 -1.08,1.08 -1.72,1.9l-20.22 20.46c-4.42,4.37 -8.76,9.14 -13.79,13.1 -2.64,2.08 -4.59,3.97 -7.33,6.1 -2.2,1.72 -6.24,4.19 -7.24,6.51l284.14 0.03c-0.05,-7.06 -3.09,-19.66 -4.49,-26.82 -5.38,-27.6 -19.18,-70.07 -30.92,-95.14 -3.34,-7.13 -6.6,-14.64 -10.19,-21.41 -8.44,-15.93 -16.17,-30.79 -25.23,-45.6 -2.41,-3.94 -3.04,-4.33 -6.03,-9.59 -1.03,-1.81 -1.99,-3.12 -3.13,-4.86 -14.37,-22.07 -29.93,-43.45 -47.27,-63.16 -0.91,-1.03 -1.11,-1.31 -1.82,-2.18l-5.74 -6.24c-4.76,-5.87 -10.25,-10.7 -15.28,-16.32 -4.8,-5.36 -10.48,-10.86 -15.69,-15.92 -3.56,-3.46 -12.52,-13.45 -16.02,-15.58 0.06,-2.11 4.88,-24.32 5.74,-29.35 5.4,-31.36 7.41,-63.47 9.85,-95.32 3.3,-42.99 -2.55,-86.79 -14.55,-124.45 -11.5,-36.1 -29.5,-66.48 -48.49,-91.73 -8.14,-10.83 -11.93,-13.99 -20.39,-23.21 -4.92,-5.36 -10.35,-10.28 -15.61,-15.25 -6.51,-6.14 -15.3,-11.69 -22.59,-17.01 -5.22,-3.8 -10.64,-6.85 -16.37,-10.15 -85.05,-48.98 -193.64,-44.12 -292.15,-15.53 -30.18,8.76 -71.73,25.29 -100.01,40.2 -11.21,5.92 -22.96,12.18 -33.65,19.03 -1.92,1.23 -3.45,2.13 -5.4,3.32l-4.16 2.37c-0.19,0.1 -0.56,0.29 -0.72,0.38 -0.59,0.36 -0.45,0.25 -0.91,0.64zm529.95 355.66c-1.4,-0.81 -3.44,-2.59 -4.45,-3.51 -1.52,-1.38 -2.69,-2.29 -4.49,-3.49 -9.98,-6.68 -19.21,-12.55 -31.23,-16.71 -16.94,-5.87 -32.12,-10.59 -51.28,-13.03 -41.76,-5.31 -75,0.66 -111.95,11.89 -33.79,10.26 -62.13,29.5 -78.58,49.65 -6.37,7.8 -7.44,8.5 -13.23,18.72 -3.67,6.47 -7.09,14.65 -9.29,22.69 -5.65,20.73 -4.34,35.6 2.9,54.55 5.62,14.7 16.95,25.39 31.03,32.91 15.47,8.27 31.62,12.07 52.01,12.4 26.42,0.43 57.41,-4.77 81.05,-14.98 19.67,-8.5 23.99,-11.83 41.68,-22.61 8.08,-4.93 11.4,-7.47 18.78,-13.18 5.39,-4.16 10.27,-8.23 15.04,-12.93 0.84,-0.82 1.29,-0.99 2.17,-1.84l17.82 -18.49c0.71,-0.81 1.05,-1.39 1.8,-2.21 6.8,-7.46 18.18,-24.22 22.98,-32.95 7.6,-13.84 15.27,-30.5 17.26,-46.88z"/>
 </g>
</svg>
