<?xml version="1.0" encoding="UTF-8"?>
<!DOCTYPE svg PUBLIC "-//W3C//DTD SVG 1.1//EN" "http://www.w3.org/Graphics/SVG/1.1/DTD/svg11.dtd">
<!-- Creator: CorelDRAW -->
<svg xmlns="http://www.w3.org/2000/svg" xml:space="preserve" width="58.5816mm" height="60.353mm" version="1.1" style="shape-rendering:geometricPrecision; text-rendering:geometricPrecision; image-rendering:optimizeQuality; fill-rule:evenodd; clip-rule:evenodd"
viewBox="0 0 744.43 766.94"
 xmlns:xlink="http://www.w3.org/1999/xlink"
 xmlns:xodm="http://www.corel.com/coreldraw/odm/2003">
 <defs>
  <style type="text/css">
   <![CDATA[
    .str0 {stroke:#ddd;stroke-width:0.7;stroke-miterlimit:22.9256;stroke-dasharray:5.083024 7.624536}
    .fil0 {fill:none}
   ]]>
    .vPath {
      offset-path: path(
        'M3.76 88.44c1.03,4.25 3.79,10.56 5.42,14.97 1.87,5.03 3.79,10.11 5.53,15.12 3.48,10.02 7.34,19.97 10.97,29.97l44.1 120.41c3.67,10.01 7.13,20.13 10.88,30.07 1.32,3.5 10.52,29.2 11.24,30.09 1,-0.39 0.83,-0.38 1.48,-1.45 0.42,-0.7 0.59,-1.09 1.11,-1.79l8.03 -9.72c23.37,-29.67 62.88,-56.33 96.78,-70.28 23.42,-9.64 46.26,-17.03 73.23,-22.1 26.19,-4.92 61.83,-7.53 89.14,-4.68 27.51,2.88 53.69,8.82 75.88,19.44 17.73,8.49 28.91,16.79 43.12,28.27 4.33,3.5 10.5,10.91 14.72,14.99 3.35,3.25 14.95,20.68 17.17,24.51 20.33,35.08 28.16,74.35 26.81,116.6 -1.62,-0.99 -2.45,-1.96 -3.94,-3.21 -1.36,-1.14 -2.88,-2.34 -4.16,-3.46 -2.63,-2.31 -4.95,-4.97 -7.68,-7.17 -5.56,-4.46 -10.84,-9.32 -16.51,-13.56 -11.04,-8.27 -23.12,-16.8 -36.09,-24.07 -28.07,-15.74 -52.83,-27.11 -85.32,-34.61 -34.09,-7.87 -72.66,-11.69 -109.25,-9.04 -9.09,0.66 -18.36,1.05 -27.37,2.28 -17.03,2.32 -33.74,5.58 -50.19,9.94 -7.85,2.08 -15.37,4.68 -22.87,7.2 -28.09,9.42 -56.56,22.95 -79.28,40.67 -6.33,4.94 -12.81,9.45 -18.57,14.77 -1.99,1.83 -4.05,3.34 -5.79,5.43l-7.45 7.77c-9.95,10.64 -18.37,21.54 -26.02,34.12 -16.95,27.9 -27.89,52.42 -34.31,85.59 -10.59,54.73 4.85,109.3 38.78,149.74 2.43,2.9 4.74,5.28 7.09,8.13 2.21,2.68 5.13,4.78 7.43,7.42 1.27,1.46 2.41,2.23 4.01,3.59 1.4,1.2 2.56,2.45 3.97,3.64 5.38,4.56 10.49,8.48 16.85,12.87 5.69,3.93 12.32,7.82 18.7,11.38 44.45,24.74 94.06,34.55 147.07,33.13 19.46,-0.52 34.83,-1.78 53.75,-6.14 15.45,-3.56 31.94,-8.68 44.98,-15.18 3.33,-1.66 6.6,-3.12 10.04,-4.82 9.66,-4.79 19.51,-10.81 28.08,-16.86 9.03,-6.39 16.83,-12.84 25.23,-19.7l19.07 -18.26c1.33,-1.37 2.54,-2.38 3.81,-3.79 25.81,-28.48 43.21,-53.88 62.64,-87.38 7.48,-12.89 13.45,-25.99 20.37,-39.78 11.83,-23.55 21.83,-49.16 30.88,-74.21 1.39,-3.84 2.93,-7.26 3.95,-11.24 1.1,0.82 2.07,2.68 2.83,3.93 12.47,20.55 19.07,59.18 18.27,82.78 -0.6,17.76 -1.66,32.09 -4.96,49.02 -3.01,15.46 -6.43,28.37 -12.09,41.85 -12.14,28.93 -27.33,51.89 -45.41,72.01 -0.73,0.81 -1.08,1.08 -1.72,1.9l-20.17 20.41c-4.41,4.36 -8.74,9.12 -13.75,13.06 -2.64,2.07 -4.58,3.96 -7.31,6.09 -2.19,1.71 -6.23,4.18 -7.23,6.49l283.47 0.03c-0.05,-7.04 -3.08,-19.61 -4.48,-26.75 -5.37,-27.53 -19.14,-69.9 -30.84,-94.92 -3.33,-7.12 -6.58,-14.6 -10.16,-21.36 -8.42,-15.89 -16.14,-30.72 -25.17,-45.49 -2.4,-3.93 -3.03,-4.32 -6.02,-9.56 -1.03,-1.8 -1.99,-3.11 -3.12,-4.85 -14.33,-22.02 -29.86,-43.35 -47.16,-63.01 -0.9,-1.03 -1.1,-1.31 -1.82,-2.17l-5.72 -6.22c-4.75,-5.86 -10.23,-10.67 -15.25,-16.28 -4.79,-5.35 -10.46,-10.83 -15.65,-15.88 -3.55,-3.45 -12.49,-13.42 -15.98,-15.54 0.06,-2.11 4.86,-24.26 5.73,-29.28 5.39,-31.29 7.39,-63.32 9.83,-95.09 3.3,-42.89 -2.54,-86.58 -14.52,-124.15 -11.47,-36.01 -29.43,-66.32 -48.37,-91.51 -8.12,-10.81 -11.9,-13.95 -20.34,-23.15 -4.91,-5.35 -10.32,-10.26 -15.58,-15.21 -6.5,-6.12 -15.27,-11.66 -22.54,-16.96 -5.21,-3.79 -10.62,-6.83 -16.34,-10.12 -84.85,-48.87 -193.18,-44.01 -291.45,-15.49 -30.11,8.74 -71.56,25.23 -99.77,40.11 -11.19,5.9 -22.91,12.15 -33.57,18.98 -1.91,1.23 -3.44,2.13 -5.39,3.31l-4.15 2.36c-0.19,0.1 -0.56,0.29 -0.72,0.38 -0.59,0.36 -0.45,0.25 -0.9,0.64zm528.69 354.82c-1.4,-0.81 -3.43,-2.59 -4.44,-3.5 -1.52,-1.37 -2.68,-2.28 -4.48,-3.48 -9.96,-6.67 -19.16,-12.52 -31.16,-16.67 -16.9,-5.86 -32.05,-10.57 -51.15,-13 -41.66,-5.3 -74.82,0.66 -111.69,11.86 -33.71,10.24 -61.98,29.43 -78.4,49.53 -6.36,7.79 -7.42,8.48 -13.2,18.68 -3.66,6.46 -7.08,14.62 -9.27,22.64 -5.64,20.68 -4.33,35.52 2.9,54.42 5.61,14.67 16.91,25.32 30.95,32.83 15.44,8.25 31.54,12.04 51.89,12.37 26.35,0.43 57.28,-4.76 80.85,-14.94 19.63,-8.48 23.94,-11.81 41.58,-22.56 8.07,-4.92 11.37,-7.45 18.74,-13.15 5.37,-4.15 10.24,-8.21 15,-12.9 0.83,-0.82 1.29,-0.98 2.16,-1.84l17.78 -18.44c0.71,-0.81 1.05,-1.38 1.8,-2.2 6.78,-7.44 18.14,-24.16 22.93,-32.87 7.59,-13.81 15.24,-30.43 17.21,-46.77z'
      );
      animation:
        followpath 22s linear infinite,
        pulse-fade 9s linear infinite;
      opacity: 0;
    }

    .oPath {
      offset-path: path(
        'M653.5 114.5H1075L774 410V1C774 1 954.5 1 1075 1C1195.5 1 1282 114.5 1282 207C1282 299.5 1282 495.5 1282 495.5H868.5L1162 207V609.5C1162 609.5 998 609.5 868.5 609.5C739 609.5 653.5 487 653.5 410C653.5 333 653.5 114.5 653.5 114.5Z'
      );
      animation:
        followpath 22s linear infinite,
        pulse-fade 9s linear infinite;
      animation-delay: 1.5s;
      opacity: 0;
    }

    .dashed {
      stroke-dasharray: 3;
      stroke-width: 1;
    }
    .pulse-fade {
      stroke-width: 2;
    }

    @-moz-document url-prefix() {
      .dashed {
        stroke-dasharray: 6;
        stroke-width: 2;
      }
      .pulse-fade {
        stroke-width: 6;
      }
    }

    @media (prefers-reduced-motion) {
      .vPath { opacity: 0; }
      .oPath { opacity: 0; }
    }

    @keyframes followpath {
      to {
        offset-distance: 100%;
      }
    }

    @keyframes pulse-fade {
      0% {
        opacity: 0;
      }
      40% {
        opacity: 0;
      }
      50% {
        opacity: 1;
      }
      60% {
        opacity: 0;
      }
      100% {
        opacity: 0;
      }
    }
  </style>
   <radialGradient id="pulseGradient">
      <stop offset="10%" stop-color="#58F0D4"/>
      <stop offset="95%" stop-color="#58F0D400"/>
    </radialGradient>
    <linearGradient id="fadeGradient" gradientTransform="rotate(90)">
      <stop offset="0%" stop-color="#888888"/>
      <stop offset="50%" stop-color="white"/>
      <stop offset="100%" stop-color="#888888"/>
    </linearGradient>
    <mask id="vignette">
      <rect x="0" y="0" width="1283" height="810" fill="url('#fadeGradient')"/>
    </mask>
    <mask id="v-clip">
      <path vector-effect="non-scaling-stroke" d="M3.76 88.44c1.03,4.25 3.79,10.56 5.42,14.97 1.87,5.03 3.79,10.11 5.53,15.12 3.48,10.02 7.34,19.97 10.97,29.97l44.1 120.41c3.67,10.01 7.13,20.13 10.88,30.07 1.32,3.5 10.52,29.2 11.24,30.09 1,-0.39 0.83,-0.38 1.48,-1.45 0.42,-0.7 0.59,-1.09 1.11,-1.79l8.03 -9.72c23.37,-29.67 62.88,-56.33 96.78,-70.28 23.42,-9.64 46.26,-17.03 73.23,-22.1 26.19,-4.92 61.83,-7.53 89.14,-4.68 27.51,2.88 53.69,8.82 75.88,19.44 17.73,8.49 28.91,16.79 43.12,28.27 4.33,3.5 10.5,10.91 14.72,14.99 3.35,3.25 14.95,20.68 17.17,24.51 20.33,35.08 28.16,74.35 26.81,116.6 -1.62,-0.99 -2.45,-1.96 -3.94,-3.21 -1.36,-1.14 -2.88,-2.34 -4.16,-3.46 -2.63,-2.31 -4.95,-4.97 -7.68,-7.17 -5.56,-4.46 -10.84,-9.32 -16.51,-13.56 -11.04,-8.27 -23.12,-16.8 -36.09,-24.07 -28.07,-15.74 -52.83,-27.11 -85.32,-34.61 -34.09,-7.87 -72.66,-11.69 -109.25,-9.04 -9.09,0.66 -18.36,1.05 -27.37,2.28 -17.03,2.32 -33.74,5.58 -50.19,9.94 -7.85,2.08 -15.37,4.68 -22.87,7.2 -28.09,9.42 -56.56,22.95 -79.28,40.67 -6.33,4.94 -12.81,9.45 -18.57,14.77 -1.99,1.83 -4.05,3.34 -5.79,5.43l-7.45 7.77c-9.95,10.64 -18.37,21.54 -26.02,34.12 -16.95,27.9 -27.89,52.42 -34.31,85.59 -10.59,54.73 4.85,109.3 38.78,149.74 2.43,2.9 4.74,5.28 7.09,8.13 2.21,2.68 5.13,4.78 7.43,7.42 1.27,1.46 2.41,2.23 4.01,3.59 1.4,1.2 2.56,2.45 3.97,3.64 5.38,4.56 10.49,8.48 16.85,12.87 5.69,3.93 12.32,7.82 18.7,11.38 44.45,24.74 94.06,34.55 147.07,33.13 19.46,-0.52 34.83,-1.78 53.75,-6.14 15.45,-3.56 31.94,-8.68 44.98,-15.18 3.33,-1.66 6.6,-3.12 10.04,-4.82 9.66,-4.79 19.51,-10.81 28.08,-16.86 9.03,-6.39 16.83,-12.84 25.23,-19.7l19.07 -18.26c1.33,-1.37 2.54,-2.38 3.81,-3.79 25.81,-28.48 43.21,-53.88 62.64,-87.38 7.48,-12.89 13.45,-25.99 20.37,-39.78 11.83,-23.55 21.83,-49.16 30.88,-74.21 1.39,-3.84 2.93,-7.26 3.95,-11.24 1.1,0.82 2.07,2.68 2.83,3.93 12.47,20.55 19.07,59.18 18.27,82.78 -0.6,17.76 -1.66,32.09 -4.96,49.02 -3.01,15.46 -6.43,28.37 -12.09,41.85 -12.14,28.93 -27.33,51.89 -45.41,72.01 -0.73,0.81 -1.08,1.08 -1.72,1.9l-20.17 20.41c-4.41,4.36 -8.74,9.12 -13.75,13.06 -2.64,2.07 -4.58,3.96 -7.31,6.09 -2.19,1.71 -6.23,4.18 -7.23,6.49l283.47 0.03c-0.05,-7.04 -3.08,-19.61 -4.48,-26.75 -5.37,-27.53 -19.14,-69.9 -30.84,-94.92 -3.33,-7.12 -6.58,-14.6 -10.16,-21.36 -8.42,-15.89 -16.14,-30.72 -25.17,-45.49 -2.4,-3.93 -3.03,-4.32 -6.02,-9.56 -1.03,-1.8 -1.99,-3.11 -3.12,-4.85 -14.33,-22.02 -29.86,-43.35 -47.16,-63.01 -0.9,-1.03 -1.1,-1.31 -1.82,-2.17l-5.72 -6.22c-4.75,-5.86 -10.23,-10.67 -15.25,-16.28 -4.79,-5.35 -10.46,-10.83 -15.65,-15.88 -3.55,-3.45 -12.49,-13.42 -15.98,-15.54 0.06,-2.11 4.86,-24.26 5.73,-29.28 5.39,-31.29 7.39,-63.32 9.83,-95.09 3.3,-42.89 -2.54,-86.58 -14.52,-124.15 -11.47,-36.01 -29.43,-66.32 -48.37,-91.51 -8.12,-10.81 -11.9,-13.95 -20.34,-23.15 -4.91,-5.35 -10.32,-10.26 -15.58,-15.21 -6.5,-6.12 -15.27,-11.66 -22.54,-16.96 -5.21,-3.79 -10.62,-6.83 -16.34,-10.12 -84.85,-48.87 -193.18,-44.01 -291.45,-15.49 -30.11,8.74 -71.56,25.23 -99.77,40.11 -11.19,5.9 -22.91,12.15 -33.57,18.98 -1.91,1.23 -3.44,2.13 -5.39,3.31l-4.15 2.36c-0.19,0.1 -0.56,0.29 -0.72,0.38 -0.59,0.36 -0.45,0.25 -0.9,0.64zm528.69 354.82c-1.4,-0.81 -3.43,-2.59 -4.44,-3.5 -1.52,-1.37 -2.68,-2.28 -4.48,-3.48 -9.96,-6.67 -19.16,-12.52 -31.16,-16.67 -16.9,-5.86 -32.05,-10.57 -51.15,-13 -41.66,-5.3 -74.82,0.66 -111.69,11.86 -33.71,10.24 -61.98,29.43 -78.4,49.53 -6.36,7.79 -7.42,8.48 -13.2,18.68 -3.66,6.46 -7.08,14.62 -9.27,22.64 -5.64,20.68 -4.33,35.52 2.9,54.42 5.61,14.67 16.91,25.32 30.95,32.83 15.44,8.25 31.54,12.04 51.89,12.37 26.35,0.43 57.28,-4.76 80.85,-14.94 19.63,-8.48 23.94,-11.81 41.58,-22.56 8.07,-4.92 11.37,-7.45 18.74,-13.15 5.37,-4.15 10.24,-8.21 15,-12.9 0.83,-0.82 1.29,-0.98 2.16,-1.84l17.78 -18.44c0.71,-0.81 1.05,-1.38 1.8,-2.2 6.78,-7.44 18.14,-24.16 22.93,-32.87 7.59,-13.81 15.24,-30.43 17.21,-46.77z" stroke="white" class="pulse-fade"/>
    </mask>
       <mask id="o-clip">
      <path vector-effect="non-scaling-stroke" d="M3.76 88.44c1.03,4.25 3.79,10.56 5.42,14.97 1.87,5.03 3.79,10.11 5.53,15.12 3.48,10.02 7.34,19.97 10.97,29.97l44.1 120.41c3.67,10.01 7.13,20.13 10.88,30.07 1.32,3.5 10.52,29.2 11.24,30.09 1,-0.39 0.83,-0.38 1.48,-1.45 0.42,-0.7 0.59,-1.09 1.11,-1.79l8.03 -9.72c23.37,-29.67 62.88,-56.33 96.78,-70.28 23.42,-9.64 46.26,-17.03 73.23,-22.1 26.19,-4.92 61.83,-7.53 89.14,-4.68 27.51,2.88 53.69,8.82 75.88,19.44 17.73,8.49 28.91,16.79 43.12,28.27 4.33,3.5 10.5,10.91 14.72,14.99 3.35,3.25 14.95,20.68 17.17,24.51 20.33,35.08 28.16,74.35 26.81,116.6 -1.62,-0.99 -2.45,-1.96 -3.94,-3.21 -1.36,-1.14 -2.88,-2.34 -4.16,-3.46 -2.63,-2.31 -4.95,-4.97 -7.68,-7.17 -5.56,-4.46 -10.84,-9.32 -16.51,-13.56 -11.04,-8.27 -23.12,-16.8 -36.09,-24.07 -28.07,-15.74 -52.83,-27.11 -85.32,-34.61 -34.09,-7.87 -72.66,-11.69 -109.25,-9.04 -9.09,0.66 -18.36,1.05 -27.37,2.28 -17.03,2.32 -33.74,5.58 -50.19,9.94 -7.85,2.08 -15.37,4.68 -22.87,7.2 -28.09,9.42 -56.56,22.95 -79.28,40.67 -6.33,4.94 -12.81,9.45 -18.57,14.77 -1.99,1.83 -4.05,3.34 -5.79,5.43l-7.45 7.77c-9.95,10.64 -18.37,21.54 -26.02,34.12 -16.95,27.9 -27.89,52.42 -34.31,85.59 -10.59,54.73 4.85,109.3 38.78,149.74 2.43,2.9 4.74,5.28 7.09,8.13 2.21,2.68 5.13,4.78 7.43,7.42 1.27,1.46 2.41,2.23 4.01,3.59 1.4,1.2 2.56,2.45 3.97,3.64 5.38,4.56 10.49,8.48 16.85,12.87 5.69,3.93 12.32,7.82 18.7,11.38 44.45,24.74 94.06,34.55 147.07,33.13 19.46,-0.52 34.83,-1.78 53.75,-6.14 15.45,-3.56 31.94,-8.68 44.98,-15.18 3.33,-1.66 6.6,-3.12 10.04,-4.82 9.66,-4.79 19.51,-10.81 28.08,-16.86 9.03,-6.39 16.83,-12.84 25.23,-19.7l19.07 -18.26c1.33,-1.37 2.54,-2.38 3.81,-3.79 25.81,-28.48 43.21,-53.88 62.64,-87.38 7.48,-12.89 13.45,-25.99 20.37,-39.78 11.83,-23.55 21.83,-49.16 30.88,-74.21 1.39,-3.84 2.93,-7.26 3.95,-11.24 1.1,0.82 2.07,2.68 2.83,3.93 12.47,20.55 19.07,59.18 18.27,82.78 -0.6,17.76 -1.66,32.09 -4.96,49.02 -3.01,15.46 -6.43,28.37 -12.09,41.85 -12.14,28.93 -27.33,51.89 -45.41,72.01 -0.73,0.81 -1.08,1.08 -1.72,1.9l-20.17 20.41c-4.41,4.36 -8.74,9.12 -13.75,13.06 -2.64,2.07 -4.58,3.96 -7.31,6.09 -2.19,1.71 -6.23,4.18 -7.23,6.49l283.47 0.03c-0.05,-7.04 -3.08,-19.61 -4.48,-26.75 -5.37,-27.53 -19.14,-69.9 -30.84,-94.92 -3.33,-7.12 -6.58,-14.6 -10.16,-21.36 -8.42,-15.89 -16.14,-30.72 -25.17,-45.49 -2.4,-3.93 -3.03,-4.32 -6.02,-9.56 -1.03,-1.8 -1.99,-3.11 -3.12,-4.85 -14.33,-22.02 -29.86,-43.35 -47.16,-63.01 -0.9,-1.03 -1.1,-1.31 -1.82,-2.17l-5.72 -6.22c-4.75,-5.86 -10.23,-10.67 -15.25,-16.28 -4.79,-5.35 -10.46,-10.83 -15.65,-15.88 -3.55,-3.45 -12.49,-13.42 -15.98,-15.54 0.06,-2.11 4.86,-24.26 5.73,-29.28 5.39,-31.29 7.39,-63.32 9.83,-95.09 3.3,-42.89 -2.54,-86.58 -14.52,-124.15 -11.47,-36.01 -29.43,-66.32 -48.37,-91.51 -8.12,-10.81 -11.9,-13.95 -20.34,-23.15 -4.91,-5.35 -10.32,-10.26 -15.58,-15.21 -6.5,-6.12 -15.27,-11.66 -22.54,-16.96 -5.21,-3.79 -10.62,-6.83 -16.34,-10.12 -84.85,-48.87 -193.18,-44.01 -291.45,-15.49 -30.11,8.74 -71.56,25.23 -99.77,40.11 -11.19,5.9 -22.91,12.15 -33.57,18.98 -1.91,1.23 -3.44,2.13 -5.39,3.31l-4.15 2.36c-0.19,0.1 -0.56,0.29 -0.72,0.38 -0.59,0.36 -0.45,0.25 -0.9,0.64zm528.69 354.82c-1.4,-0.81 -3.43,-2.59 -4.44,-3.5 -1.52,-1.37 -2.68,-2.28 -4.48,-3.48 -9.96,-6.67 -19.16,-12.52 -31.16,-16.67 -16.9,-5.86 -32.05,-10.57 -51.15,-13 -41.66,-5.3 -74.82,0.66 -111.69,11.86 -33.71,10.24 -61.98,29.43 -78.4,49.53 -6.36,7.79 -7.42,8.48 -13.2,18.68 -3.66,6.46 -7.08,14.62 -9.27,22.64 -5.64,20.68 -4.33,35.52 2.9,54.42 5.61,14.67 16.91,25.32 30.95,32.83 15.44,8.25 31.54,12.04 51.89,12.37 26.35,0.43 57.28,-4.76 80.85,-14.94 19.63,-8.48 23.94,-11.81 41.58,-22.56 8.07,-4.92 11.37,-7.45 18.74,-13.15 5.37,-4.15 10.24,-8.21 15,-12.9 0.83,-0.82 1.29,-0.98 2.16,-1.84l17.78 -18.44c0.71,-0.81 1.05,-1.38 1.8,-2.2 6.78,-7.44 18.14,-24.16 22.93,-32.87 7.59,-13.81 15.24,-30.43 17.21,-46.77z" stroke="white" class="pulse-fade"/>
    </mask>
 </defs>
 <g id="Layer_x0020_1" mask="url(#vignette)">
  <g mask="url(#v-clip)">
  <circle r="100" fill="url('#pulseGradient')" class="vPath"/>
  </g>
  <g mask="url(#o-clip)">
      <circle r="100" fill="url('#pulseGradient')" class="oPath"/>
  </g>
  <metadata id="CorelCorpID_0Corel-Layer"/>
  <path class="fil0 str0" d="M3.76 88.44c1.03,4.25 3.79,10.56 5.42,14.97 1.87,5.03 3.79,10.11 5.53,15.12 3.48,10.02 7.34,19.97 10.97,29.97l44.1 120.41c3.67,10.01 7.13,20.13 10.88,30.07 1.32,3.5 10.52,29.2 11.24,30.09 1,-0.39 0.83,-0.38 1.48,-1.45 0.42,-0.7 0.59,-1.09 1.11,-1.79l8.03 -9.72c23.37,-29.67 62.88,-56.33 96.78,-70.28 23.42,-9.64 46.26,-17.03 73.23,-22.1 26.19,-4.92 61.83,-7.53 89.14,-4.68 27.51,2.88 53.69,8.82 75.88,19.44 17.73,8.49 28.91,16.79 43.12,28.27 4.33,3.5 10.5,10.91 14.72,14.99 3.35,3.25 14.95,20.68 17.17,24.51 20.33,35.08 28.16,74.35 26.81,116.6 -1.62,-0.99 -2.45,-1.96 -3.94,-3.21 -1.36,-1.14 -2.88,-2.34 -4.16,-3.46 -2.63,-2.31 -4.95,-4.97 -7.68,-7.17 -5.56,-4.46 -10.84,-9.32 -16.51,-13.56 -11.04,-8.27 -23.12,-16.8 -36.09,-24.07 -28.07,-15.74 -52.83,-27.11 -85.32,-34.61 -34.09,-7.87 -72.66,-11.69 -109.25,-9.04 -9.09,0.66 -18.36,1.05 -27.37,2.28 -17.03,2.32 -33.74,5.58 -50.19,9.94 -7.85,2.08 -15.37,4.68 -22.87,7.2 -28.09,9.42 -56.56,22.95 -79.28,40.67 -6.33,4.94 -12.81,9.45 -18.57,14.77 -1.99,1.83 -4.05,3.34 -5.79,5.43l-7.45 7.77c-9.95,10.64 -18.37,21.54 -26.02,34.12 -16.95,27.9 -27.89,52.42 -34.31,85.59 -10.59,54.73 4.85,109.3 38.78,149.74 2.43,2.9 4.74,5.28 7.09,8.13 2.21,2.68 5.13,4.78 7.43,7.42 1.27,1.46 2.41,2.23 4.01,3.59 1.4,1.2 2.56,2.45 3.97,3.64 5.38,4.56 10.49,8.48 16.85,12.87 5.69,3.93 12.32,7.82 18.7,11.38 44.45,24.74 94.06,34.55 147.07,33.13 19.46,-0.52 34.83,-1.78 53.75,-6.14 15.45,-3.56 31.94,-8.68 44.98,-15.18 3.33,-1.66 6.6,-3.12 10.04,-4.82 9.66,-4.79 19.51,-10.81 28.08,-16.86 9.03,-6.39 16.83,-12.84 25.23,-19.7l19.07 -18.26c1.33,-1.37 2.54,-2.38 3.81,-3.79 25.81,-28.48 43.21,-53.88 62.64,-87.38 7.48,-12.89 13.45,-25.99 20.37,-39.78 11.83,-23.55 21.83,-49.16 30.88,-74.21 1.39,-3.84 2.93,-7.26 3.95,-11.24 1.1,0.82 2.07,2.68 2.83,3.93 12.47,20.55 19.07,59.18 18.27,82.78 -0.6,17.76 -1.66,32.09 -4.96,49.02 -3.01,15.46 -6.43,28.37 -12.09,41.85 -12.14,28.93 -27.33,51.89 -45.41,72.01 -0.73,0.81 -1.08,1.08 -1.72,1.9l-20.17 20.41c-4.41,4.36 -8.74,9.12 -13.75,13.06 -2.64,2.07 -4.58,3.96 -7.31,6.09 -2.19,1.71 -6.23,4.18 -7.23,6.49l283.47 0.03c-0.05,-7.04 -3.08,-19.61 -4.48,-26.75 -5.37,-27.53 -19.14,-69.9 -30.84,-94.92 -3.33,-7.12 -6.58,-14.6 -10.16,-21.36 -8.42,-15.89 -16.14,-30.72 -25.17,-45.49 -2.4,-3.93 -3.03,-4.32 -6.02,-9.56 -1.03,-1.8 -1.99,-3.11 -3.12,-4.85 -14.33,-22.02 -29.86,-43.35 -47.16,-63.01 -0.9,-1.03 -1.1,-1.31 -1.82,-2.17l-5.72 -6.22c-4.75,-5.86 -10.23,-10.67 -15.25,-16.28 -4.79,-5.35 -10.46,-10.83 -15.65,-15.88 -3.55,-3.45 -12.49,-13.42 -15.98,-15.54 0.06,-2.11 4.86,-24.26 5.73,-29.28 5.39,-31.29 7.39,-63.32 9.83,-95.09 3.3,-42.89 -2.54,-86.58 -14.52,-124.15 -11.47,-36.01 -29.43,-66.32 -48.37,-91.51 -8.12,-10.81 -11.9,-13.95 -20.34,-23.15 -4.91,-5.35 -10.32,-10.26 -15.58,-15.21 -6.5,-6.12 -15.27,-11.66 -22.54,-16.96 -5.21,-3.79 -10.62,-6.83 -16.34,-10.12 -84.85,-48.87 -193.18,-44.01 -291.45,-15.49 -30.11,8.74 -71.56,25.23 -99.77,40.11 -11.19,5.9 -22.91,12.15 -33.57,18.98 -1.91,1.23 -3.44,2.13 -5.39,3.31l-4.15 2.36c-0.19,0.1 -0.56,0.29 -0.72,0.38 -0.59,0.36 -0.45,0.25 -0.9,0.64zm528.69 354.82c-1.4,-0.81 -3.43,-2.59 -4.44,-3.5 -1.52,-1.37 -2.68,-2.28 -4.48,-3.48 -9.96,-6.67 -19.16,-12.52 -31.16,-16.67 -16.9,-5.86 -32.05,-10.57 -51.15,-13 -41.66,-5.3 -74.82,0.66 -111.69,11.86 -33.71,10.24 -61.98,29.43 -78.4,49.53 -6.36,7.79 -7.42,8.48 -13.2,18.68 -3.66,6.46 -7.08,14.62 -9.27,22.64 -5.64,20.68 -4.33,35.52 2.9,54.42 5.61,14.67 16.91,25.32 30.95,32.83 15.44,8.25 31.54,12.04 51.89,12.37 26.35,0.43 57.28,-4.76 80.85,-14.94 19.63,-8.48 23.94,-11.81 41.58,-22.56 8.07,-4.92 11.37,-7.45 18.74,-13.15 5.37,-4.15 10.24,-8.21 15,-12.9 0.83,-0.82 1.29,-0.98 2.16,-1.84l17.78 -18.44c0.71,-0.81 1.05,-1.38 1.8,-2.2 6.78,-7.44 18.14,-24.16 22.93,-32.87 7.59,-13.81 15.24,-30.43 17.21,-46.77z"/>
  <path class="fil0 str0" d="M3.76 88.44c1.03,4.25 3.79,10.56 5.42,14.97 1.87,5.03 3.79,10.11 5.53,15.12 3.48,10.02 7.34,19.97 10.97,29.97l44.1 120.41c3.67,10.01 7.13,20.13 10.88,30.07 1.32,3.5 10.52,29.2 11.24,30.09 1,-0.39 0.83,-0.38 1.48,-1.45 0.42,-0.7 0.59,-1.09 1.11,-1.79l8.03 -9.72c23.37,-29.67 62.88,-56.33 96.78,-70.28 23.42,-9.64 46.26,-17.03 73.23,-22.1 26.19,-4.92 61.83,-7.53 89.14,-4.68 27.51,2.88 53.69,8.82 75.88,19.44 17.73,8.49 28.91,16.79 43.12,28.27 4.33,3.5 10.5,10.91 14.72,14.99 3.35,3.25 14.95,20.68 17.17,24.51 20.33,35.08 28.16,74.35 26.81,116.6 -1.62,-0.99 -2.45,-1.96 -3.94,-3.21 -1.36,-1.14 -2.88,-2.34 -4.16,-3.46 -2.63,-2.31 -4.95,-4.97 -7.68,-7.17 -5.56,-4.46 -10.84,-9.32 -16.51,-13.56 -11.04,-8.27 -23.12,-16.8 -36.09,-24.07 -28.07,-15.74 -52.83,-27.11 -85.32,-34.61 -34.09,-7.87 -72.66,-11.69 -109.25,-9.04 -9.09,0.66 -18.36,1.05 -27.37,2.28 -17.03,2.32 -33.74,5.58 -50.19,9.94 -7.85,2.08 -15.37,4.68 -22.87,7.2 -28.09,9.42 -56.56,22.95 -79.28,40.67 -6.33,4.94 -12.81,9.45 -18.57,14.77 -1.99,1.83 -4.05,3.34 -5.79,5.43l-7.45 7.77c-9.95,10.64 -18.37,21.54 -26.02,34.12 -16.95,27.9 -27.89,52.42 -34.31,85.59 -10.59,54.73 4.85,109.3 38.78,149.74 2.43,2.9 4.74,5.28 7.09,8.13 2.21,2.68 5.13,4.78 7.43,7.42 1.27,1.46 2.41,2.23 4.01,3.59 1.4,1.2 2.56,2.45 3.97,3.64 5.38,4.56 10.49,8.48 16.85,12.87 5.69,3.93 12.32,7.82 18.7,11.38 44.45,24.74 94.06,34.55 147.07,33.13 19.46,-0.52 34.83,-1.78 53.75,-6.14 15.45,-3.56 31.94,-8.68 44.98,-15.18 3.33,-1.66 6.6,-3.12 10.04,-4.82 9.66,-4.79 19.51,-10.81 28.08,-16.86 9.03,-6.39 16.83,-12.84 25.23,-19.7l19.07 -18.26c1.33,-1.37 2.54,-2.38 3.81,-3.79 25.81,-28.48 43.21,-53.88 62.64,-87.38 7.48,-12.89 13.45,-25.99 20.37,-39.78 11.83,-23.55 21.83,-49.16 30.88,-74.21 1.39,-3.84 2.93,-7.26 3.95,-11.24 1.1,0.82 2.07,2.68 2.83,3.93 12.47,20.55 19.07,59.18 18.27,82.78 -0.6,17.76 -1.66,32.09 -4.96,49.02 -3.01,15.46 -6.43,28.37 -12.09,41.85 -12.14,28.93 -27.33,51.89 -45.41,72.01 -0.73,0.81 -1.08,1.08 -1.72,1.9l-20.17 20.41c-4.41,4.36 -8.74,9.12 -13.75,13.06 -2.64,2.07 -4.58,3.96 -7.31,6.09 -2.19,1.71 -6.23,4.18 -7.23,6.49l283.47 0.03c-0.05,-7.04 -3.08,-19.61 -4.48,-26.75 -5.37,-27.53 -19.14,-69.9 -30.84,-94.92 -3.33,-7.12 -6.58,-14.6 -10.16,-21.36 -8.42,-15.89 -16.14,-30.72 -25.17,-45.49 -2.4,-3.93 -3.03,-4.32 -6.02,-9.56 -1.03,-1.8 -1.99,-3.11 -3.12,-4.85 -14.33,-22.02 -29.86,-43.35 -47.16,-63.01 -0.9,-1.03 -1.1,-1.31 -1.82,-2.17l-5.72 -6.22c-4.75,-5.86 -10.23,-10.67 -15.25,-16.28 -4.79,-5.35 -10.46,-10.83 -15.65,-15.88 -3.55,-3.45 -12.49,-13.42 -15.98,-15.54 0.06,-2.11 4.86,-24.26 5.73,-29.28 5.39,-31.29 7.39,-63.32 9.83,-95.09 3.3,-42.89 -2.54,-86.58 -14.52,-124.15 -11.47,-36.01 -29.43,-66.32 -48.37,-91.51 -8.12,-10.81 -11.9,-13.95 -20.34,-23.15 -4.91,-5.35 -10.32,-10.26 -15.58,-15.21 -6.5,-6.12 -15.27,-11.66 -22.54,-16.96 -5.21,-3.79 -10.62,-6.83 -16.34,-10.12 -84.85,-48.87 -193.18,-44.01 -291.45,-15.49 -30.11,8.74 -71.56,25.23 -99.77,40.11 -11.19,5.9 -22.91,12.15 -33.57,18.98 -1.91,1.23 -3.44,2.13 -5.39,3.31l-4.15 2.36c-0.19,0.1 -0.56,0.29 -0.72,0.38 -0.59,0.36 -0.45,0.25 -0.9,0.64zm528.69 354.82c-1.4,-0.81 -3.43,-2.59 -4.44,-3.5 -1.52,-1.37 -2.68,-2.28 -4.48,-3.48 -9.96,-6.67 -19.16,-12.52 -31.16,-16.67 -16.9,-5.86 -32.05,-10.57 -51.15,-13 -41.66,-5.3 -74.82,0.66 -111.69,11.86 -33.71,10.24 -61.98,29.43 -78.4,49.53 -6.36,7.79 -7.42,8.48 -13.2,18.68 -3.66,6.46 -7.08,14.62 -9.27,22.64 -5.64,20.68 -4.33,35.52 2.9,54.42 5.61,14.67 16.91,25.32 30.95,32.83 15.44,8.25 31.54,12.04 51.89,12.37 26.35,0.43 57.28,-4.76 80.85,-14.94 19.63,-8.48 23.94,-11.81 41.58,-22.56 8.07,-4.92 11.37,-7.45 18.74,-13.15 5.37,-4.15 10.24,-8.21 15,-12.9 0.83,-0.82 1.29,-0.98 2.16,-1.84l17.78 -18.44c0.71,-0.81 1.05,-1.38 1.8,-2.2 6.78,-7.44 18.14,-24.16 22.93,-32.87 7.59,-13.81 15.24,-30.43 17.21,-46.77z"/>
 </g>
</svg>
